<?xml version="1.0" encoding="utf-8"?>
<!-- Generator: Adobe Illustrator 27.5.0, SVG Export Plug-In . SVG Version: 6.00 Build 0)  -->
<svg version="1.1" xmlns="http://www.w3.org/2000/svg" xmlns:xlink="http://www.w3.org/1999/xlink" x="0px" y="0px"
	 viewBox="0 0 1000 500" style="enable-background:new 0 0 1000 500;" xml:space="preserve">
<g id="BACKGROUND">
	<rect style="fill:#FFF1E8;" width="1000" height="500"/>
	<path style="fill:#FFD1B3;" d="M63.895,436.881h872.21c0,7.18-195.25,13-436.11,13S63.895,444.061,63.895,436.881z"/>
</g>
<g id="OBJECTS">
	<g>
		<g>
			<path style="fill:#FFDFC9;" d="M884.9,343.891c31.17-41.7-56.06-14.3-51.44-29.28c17.43-56.47-53.38-23.5-70.71-52.04
				c-8.97-15.48,24-31.8,23.74-49.69c0.55-58.98-90.94-113.19-183.14-85.13c-28.07,8.54-91.93,42.13-112.85,32.19
				c-12.43-6.22-17.84-20.63-25.5-32.23c-47.04-68.86-154.17-31.64-163,47.44c-11.75,76.37,60.45,140.91,134.19,139.37
				c100.97-2.11,166.71-86.02,237.01-77.43c95.5,11.67,30.13,76.9,55.93,88.08c26.68,8.46,95.24-38.81,51.54,19.66
				C793.02,376.991,857.28,380.831,884.9,343.891z"/>
			<path style="fill:#FFDFC9;" d="M290.83,210.361c-9.25,0-16.76,12.429-16.76,27.77c0-15.341-7.501-27.77-16.76-27.77
				c9.259,0,16.76-12.429,16.76-27.77C274.07,197.932,281.58,210.361,290.83,210.361z"/>
			<path style="fill:#FFDFC9;" d="M481.325,77.889c-9.25,0-16.76,12.429-16.76,27.77c0-15.341-7.501-27.77-16.76-27.77
				c9.259,0,16.76-12.429,16.76-27.77C464.565,65.46,472.075,77.889,481.325,77.889z"/>
			<path style="fill:#FFDFC9;" d="M867.35,271.961c-9.25,0-16.76,12.429-16.76,27.77c0-15.341-7.501-27.77-16.76-27.77
				c9.259,0,16.76-12.429,16.76-27.77C850.59,259.533,858.099,271.961,867.35,271.961z"/>
			<path style="fill:#FFDFC9;" d="M825.45,244.82c-4.625,0-8.38,6.214-8.38,13.885c0-7.671-3.751-13.885-8.38-13.885
				c4.629,0,8.38-6.214,8.38-13.885C817.07,238.605,820.825,244.82,825.45,244.82z"/>
			<path style="fill:#FFDFC9;" d="M489.705,111.009c-4.625,0-8.38,6.214-8.38,13.885c0-7.671-3.75-13.885-8.38-13.885
				c4.629,0,8.38-6.214,8.38-13.885C481.325,104.795,485.08,111.009,489.705,111.009z"/>
			<path style="fill:#FFDFC9;" d="M297.68,175.238c-4.625,0-8.38,6.214-8.38,13.885c0-7.671-3.75-13.885-8.38-13.885
				c4.629,0,8.38-6.214,8.38-13.885C289.3,169.024,293.055,175.238,297.68,175.238z"/>
			<path style="fill:#FFDFC9;" d="M433.15,68.859c-4.625,0-8.38,6.214-8.38,13.885c0-7.671-3.75-13.885-8.38-13.885
				c4.629,0,8.38-6.214,8.38-13.885C424.77,62.645,428.525,68.859,433.15,68.859z"/>
			<path style="fill:#FFDFC9;" d="M713.48,295.081c-4.625,0-8.38,6.214-8.38,13.885c0-7.671-3.751-13.885-8.38-13.885
				c4.629,0,8.38-6.214,8.38-13.885C705.1,288.867,708.855,295.081,713.48,295.081z"/>
		</g>
		<g>
			<path style="fill:#DE8B54;" d="M768.88,374.401v-24.94c0-3.37,2.73-6.11,6.11-6.11h113.38c3.37,0,6.11,2.73,6.11,6.11v24.94
				c0,34.68-28.12,62.8-62.8,62.8l0,0C797,437.191,768.88,409.081,768.88,374.401z"/>
			<path style="fill:#F7AD7C;" d="M771.67,371.161v-22.34c0-3.02,2.49-5.47,5.57-5.47H880.6c3.07,0,5.57,2.45,5.57,5.47v22.34
				c0,31.07-25.63,56.25-57.25,56.25l0,0C797.3,427.411,771.67,402.231,771.67,371.161z"/>
			<path style="fill:#FFD1B3;" d="M784.51,369.551v-17.44c0-2.36,1.71-4.27,3.82-4.27h70.87c2.11,0,3.82,1.91,3.82,4.27v17.44
				c0,24.25-17.57,43.91-39.25,43.91l0,0C802.08,413.451,784.51,393.791,784.51,369.551z"/>
			<circle style="fill:#FFDFC9;" cx="856.23" cy="381.551" r="16"/>
			<path style="fill:#FFDFC9;" d="M843.86,401.541c3.717,0,6.73,3.013,6.73,6.73c0,3.717-3.013,6.73-6.73,6.73
				c-3.717,0-6.73-3.013-6.73-6.73C837.13,404.554,840.143,401.541,843.86,401.541z"/>
			<path style="fill:#54060B;" d="M779.55,343.351h107.04c0,4-23.96,7.25-53.52,7.25C803.51,350.601,779.55,347.351,779.55,343.351z
				"/>
		</g>
		<g>
			<path style="fill:#DE8B54;" d="M893.46,347.841c-0.2,0-0.4,0-0.59,0.01h-0.12c-0.66,0.02-1.33,0.04-1.99,0.09
				c-0.04,0-0.07,0-0.09,0.01c-4.94,0.62-9.39,3.95-12.75,9.06c-1.48,2.25,0.17,5.24,2.86,5.24h5.46c1.76,0,3.45-0.79,4.54-2.17
				c1.65-2.08,3.57-3.27,5.61-3.27c1.94,0,3.76,1.07,5.36,2.95c3.43,4.05,5.75,11.9,5.75,20.89c0,9.03-2.34,16.88-5.78,20.93
				c-0.01,0.02-0.02,0.04-0.03,0.04c-1.58,1.84-3.38,2.87-5.29,2.87c-2.05,0-3.97-1.2-5.62-3.28c-1.09-1.38-2.78-2.17-4.54-2.17
				h-5.45c-2.69,0-4.34,3-2.86,5.24c3.36,5.11,7.81,8.44,12.75,9.06c0.02,0.01,0.05,0.01,0.09,0.01c0.66,0.04,1.32,0.08,1.99,0.09
				h0.12c0.19,0.01,0.39,0.01,0.59,0.01c19.23,0,29.51-13.57,29.51-31.68C922.97,363.651,912.69,347.841,893.46,347.841z"/>
			<path style="fill:#F7AD7C;" d="M907.25,385.701c0.16-1.63,0.25-3.32,0.25-5.05c0-8.99-2.31-16.83-5.74-20.88
				c-1.6-1.88-3.41-2.96-5.36-2.96c-2.05,0-3.96,1.2-5.61,3.27c-1.09,1.39-2.78,2.18-4.54,2.18h-5.46c-2.69,0-4.35-3-2.86-5.25
				c3.35-5.1,7.81-8.45,12.75-9.05c0.01-0.01,0.05-0.01,0.08-0.01c0.66-0.05,1.33-0.07,1.99-0.09h0.12
				c0.18-0.01,0.38-0.01,0.59-0.01c17.35,0,27.41,12.87,29.21,28.7C918.56,390.581,911.88,389.011,907.25,385.701z"/>
			<path style="fill:#FFD1B3;" d="M892.88,347.851h-0.12c-0.14-0.01-0.28-0.01-0.43-0.01c-0.53,0-1.05,0.04-1.56,0.1
				c-0.04,0-0.07,0-0.09,0.01c-4.94,0.62-9.39,3.95-12.75,9.06c-1.48,2.25,0.17,5.24,2.86,5.24h5.46c1.76,0,3.45-0.79,4.54-2.17
				c1.65-2.08,3.57-3.27,5.61-3.27c1.94,0,3.76,1.07,5.36,2.95c3.43,4.05,5.75,11.9,5.75,20.89c0,9.03-2.34,16.88-5.78,20.93
				c-0.01,0.02-0.02,0.04-0.03,0.04c-1.58,1.84-3.38,2.87-5.29,2.87c-2.05,0-3.97-1.2-5.62-3.28c-1.09-1.38-2.78-2.17-4.54-2.17
				h-5.45c-2.69,0-4.34,3-2.86,5.24c3.36,5.11,7.81,8.44,12.75,9.06c0.02,0.01,0.05,0.01,0.09,0.01c0.51,0.07,1.03,0.1,1.56,0.1
				c0.14,0,0.28,0,0.43-0.01h0.12c11.23-0.44,20.24-14.97,20.24-32.8C913.12,362.821,904.1,348.291,892.88,347.851z"/>
			<path style="fill:#DE8B54;" d="M901.7,401.621c-2.64,4.23-6.12,6.8-9.93,6.8c-4.52,0-8.58-3.63-11.36-9.38h5.83
				c1.76,0,3.45,0.79,4.54,2.17c1.65,2.09,3.57,3.28,5.62,3.28C898.32,404.501,900.12,403.461,901.7,401.621z"/>
			<path style="fill:#F7AD7C;" d="M901.76,359.761c-1.6-1.88-3.41-2.95-5.36-2.95c-2.05,0-3.96,1.19-5.61,3.27
				c-1.09,1.38-2.78,2.17-4.54,2.17h-5.84c2.78-5.75,6.83-9.38,11.36-9.38C895.61,352.871,899.1,355.471,901.76,359.761z"/>
		</g>
		<g>
			<path style="fill:#F7AD7C;" d="M905.38,432.001v-1.51c0-0.58-0.47-1.05-1.05-1.05h-134.4c-0.58,0-1.05,0.47-1.05,1.05v1.51
				c0,0.58,0.47,1.05,1.05,1.05h134.4C904.91,433.051,905.38,432.581,905.38,432.001z"/>
			<path style="fill:#DE8B54;" d="M835.75,433.051h-3.16h-53.18l8.29,4.11c0,0.02,0.01,0.03,0.02,0.03h44.89h3.12h44.89
				c0.01,0,0.02-0.01,0.02-0.03l8.29-4.11H835.75z"/>
		</g>
	</g>
	<g>
		<g>
			<path style="fill:#B0581E;" d="M517.142,121.767L517.142,121.767c-15.899,10.096-28.389,36.576-17.193,51.147l-174.68-0.744
				c-10.128-13.925,1.607-38.948,15.845-49.303l1.499-1.089h174.529V121.767z"/>
			<path style="fill:#DE8B54;" d="M386.049,261.511l-17.711-92.167c-3.98-20.709-13.288-37.924-25.725-47.577l0,0h174.529
				l0.076,0.054c11.811,9.653,20.677,26.199,24.635,46.013l18.725,93.666H386.049V261.511z"/>
			<g>
				<path style="fill:#F7AD7C;" d="M412.529,147.524L412.529,147.524c0,1.553-1.197,2.804-2.675,2.804h-29.209
					c-1.478,0-2.675-1.251-2.675-2.804l0,0c0-1.553,1.197-2.804,2.675-2.804h29.209C411.331,144.72,412.529,145.971,412.529,147.524
					z"/>
				<path style="fill:#F7AD7C;" d="M523.927,147.524L523.927,147.524c0,1.553-1.197,2.804-2.675,2.804h-93.396
					c-1.478,0-2.675-1.251-2.675-2.804l0,0c0-1.553,1.197-2.804,2.675-2.804h93.396C522.73,144.72,523.927,145.971,523.927,147.524z
					"/>
				<path style="fill:#F7AD7C;" d="M487.459,162.226L487.459,162.226c0,1.553-1.197,2.804-2.675,2.804H383.751
					c-1.478,0-2.675-1.251-2.675-2.804l0,0c0-1.553,1.197-2.804,2.675-2.804h101.033
					C486.262,159.421,487.459,160.672,487.459,162.226z"/>
				<path style="fill:#F7AD7C;" d="M527.033,162.226L527.033,162.226c0,1.553-1.197,2.804-2.675,2.804h-21.572
					c-1.478,0-2.675-1.251-2.675-2.804l0,0c0-1.553,1.197-2.804,2.675-2.804h21.572
					C525.836,159.421,527.033,160.672,527.033,162.226z"/>
				<path style="fill:#F7AD7C;" d="M384.172,176.927L384.172,176.927c0-1.553,1.197-2.804,2.675-2.804h140.607
					c1.478,0,2.675,1.251,2.675,2.804l0,0c0,1.553-1.197,2.804-2.675,2.804H386.847C385.369,179.742,384.172,178.48,384.172,176.927
					z"/>
				<path style="fill:#F7AD7C;" d="M456.902,191.639L456.902,191.639c0,1.553-1.197,2.804-2.675,2.804h-64.285
					c-1.478,0-2.675-1.251-2.675-2.804l0,0c0-1.553,1.197-2.804,2.675-2.804h64.285
					C455.705,188.835,456.902,190.086,456.902,191.639z"/>
				<path style="fill:#F7AD7C;" d="M533.224,191.639L533.224,191.639c0,1.553-1.197,2.804-2.675,2.804h-58.32
					c-1.478,0-2.675-1.251-2.675-2.804l0,0c0-1.553,1.197-2.804,2.675-2.804h58.32C532.027,188.835,533.224,190.086,533.224,191.639
					z"/>
				<path style="fill:#F7AD7C;" d="M475.53,206.34L475.53,206.34c0,1.553-1.197,2.804-2.675,2.804h-79.806
					c-1.478,0-2.675-1.251-2.675-2.804l0,0c0-1.553,1.197-2.804,2.675-2.804h79.806C474.333,203.536,475.53,204.787,475.53,206.34z"
					/>
				<path style="fill:#F7AD7C;" d="M536.331,206.34L536.331,206.34c0,1.553-1.197,2.804-2.675,2.804h-6.31
					c-1.478,0-2.675-1.251-2.675-2.804l0,0c0-1.553,1.197-2.804,2.675-2.804h6.31C535.134,203.536,536.331,204.787,536.331,206.34z"
					/>
				<path style="fill:#F7AD7C;" d="M393.47,221.053L393.47,221.053c0-1.553,1.197-2.804,2.675-2.804h140.607
					c1.478,0,2.675,1.251,2.675,2.804l0,0c0,1.553-1.197,2.804-2.675,2.804H396.145C394.667,223.857,393.47,222.595,393.47,221.053z
					"/>
				<path style="fill:#F7AD7C;" d="M414.211,235.754L414.211,235.754c0,1.553-1.197,2.804-2.675,2.804h-12.285
					c-1.478,0-2.675-1.251-2.675-2.804l0,0c0-1.553,1.197-2.804,2.675-2.804h12.285C413.014,232.95,414.211,234.201,414.211,235.754
					z"/>
				<path style="fill:#F7AD7C;" d="M542.533,235.754L542.533,235.754c0,1.553-1.197,2.804-2.675,2.804h-110.32
					c-1.478,0-2.675-1.251-2.675-2.804l0,0c0-1.553,1.197-2.804,2.675-2.804h110.32C541.336,232.95,542.533,234.201,542.533,235.754
					z"/>
			</g>
		</g>
		<g>
			<polygon style="fill:#778D9E;" points="672.965,295.091 672.485,261.511 495.315,261.511 495.315,427.111 818.725,427.111 
				818.725,381.481 			"/>
			<polygon style="fill:#162938;" points="652.645,295.091 652.645,261.511 628.485,261.511 628.485,427.111 798.405,427.111 
				798.405,381.481 			"/>
			<polygon style="fill:#4B6375;" points="639.055,295.091 638.575,261.511 461.405,261.511 461.405,427.111 784.815,427.111 
				784.815,381.481 			"/>
			<g>
				<g>
					<g>
						<ellipse style="fill:#253B4D;" cx="664.375" cy="378.671" rx="8.52" ry="1.81"/>
						<path style="fill:#08121A;" d="M658.775,375.451v2.6c0,0.66,2.51,1.19,5.6,1.19c3.09,0,5.6-0.53,5.6-1.19v-2.6H658.775z"/>
						<path style="fill:#253B4D;" d="M655.845,370.621v3.96c0,1,3.82,1.81,8.52,1.81c4.71,0,8.52-0.81,8.52-1.81v-3.96H655.845z"/>
						<ellipse style="fill:#FFD1B3;" cx="664.375" cy="370.621" rx="8.52" ry="1.81"/>
					</g>
					<g>
						<ellipse style="fill:#253B4D;" cx="752.305" cy="378.671" rx="8.52" ry="1.81"/>
						<path style="fill:#08121A;" d="M746.705,375.451v2.6c0,0.66,2.51,1.19,5.6,1.19c3.09,0,5.6-0.53,5.6-1.19v-2.6H746.705z"/>
						<path style="fill:#253B4D;" d="M743.785,370.621v3.96c0,1,3.82,1.81,8.52,1.81s8.52-0.81,8.52-1.81v-3.96H743.785z"/>
						<ellipse style="fill:#FFD1B3;" cx="752.305" cy="370.621" rx="8.52" ry="1.81"/>
					</g>
					<rect x="664.375" y="368.821" style="fill:#FFD1B3;" width="87.94" height="3.62"/>
					<rect x="664.375" y="372.431" style="fill:#253B4D;" width="87.93" height="3.96"/>
				</g>
				<g>
					<g>
						<g>
							<ellipse style="fill:#253B4D;" cx="552.985" cy="314.101" rx="8.52" ry="1.81"/>
							<path style="fill:#08121A;" d="M547.385,310.891v2.6c0,0.66,2.51,1.19,5.6,1.19c3.09,0,5.6-0.53,5.6-1.19v-2.6H547.385z"/>
							<path style="fill:#253B4D;" d="M544.465,306.061v3.96c0,1,3.82,1.81,8.52,1.81c4.71,0,8.52-0.81,8.52-1.81v-3.96H544.465z"/>
							<ellipse style="fill:#FFD1B3;" cx="552.985" cy="306.061" rx="8.52" ry="1.81"/>
						</g>
						<g>
							<ellipse style="fill:#253B4D;" cx="573.655" cy="314.101" rx="8.52" ry="1.81"/>
							<path style="fill:#08121A;" d="M568.055,310.891v2.6c0,0.66,2.51,1.19,5.6,1.19c3.09,0,5.6-0.53,5.6-1.19v-2.6H568.055z"/>
							<path style="fill:#253B4D;" d="M565.125,306.061v3.96c0,1,3.82,1.81,8.52,1.81c4.7,0,8.52-0.81,8.52-1.81v-3.96H565.125z"/>
							<ellipse style="fill:#FFD1B3;" cx="573.655" cy="306.061" rx="8.52" ry="1.81"/>
						</g>
						<g>
							<ellipse style="fill:#253B4D;" cx="594.315" cy="314.101" rx="8.52" ry="1.81"/>
							<path style="fill:#08121A;" d="M588.715,310.891v2.6c0,0.66,2.51,1.19,5.6,1.19c3.09,0,5.6-0.53,5.6-1.19v-2.6H588.715z"/>
							<path style="fill:#253B4D;" d="M585.795,306.061v3.96c0,1,3.82,1.81,8.52,1.81c4.71,0,8.52-0.81,8.52-1.81v-3.96H585.795z"/>
							<ellipse style="fill:#FFD1B3;" cx="594.315" cy="306.061" rx="8.52" ry="1.81"/>
						</g>
						<g>
							<ellipse style="fill:#253B4D;" cx="614.985" cy="314.101" rx="8.52" ry="1.81"/>
							<path style="fill:#08121A;" d="M609.385,310.891v2.6c0,0.66,2.51,1.19,5.6,1.19c3.09,0,5.6-0.53,5.6-1.19v-2.6H609.385z"/>
							<path style="fill:#253B4D;" d="M606.465,306.061v3.96c0,1,3.82,1.81,8.52,1.81c4.71,0,8.52-0.81,8.52-1.81v-3.96H606.465z"/>
							<ellipse style="fill:#FFD1B3;" cx="614.985" cy="306.061" rx="8.52" ry="1.81"/>
						</g>
						<g>
							<ellipse style="fill:#253B4D;" cx="635.645" cy="314.101" rx="8.52" ry="1.81"/>
							<path style="fill:#08121A;" d="M630.055,310.891v2.6c0,0.66,2.51,1.19,5.6,1.19c3.09,0,5.6-0.53,5.6-1.19v-2.6H630.055z"/>
							<path style="fill:#253B4D;" d="M627.125,306.061v3.96c0,1,3.82,1.81,8.52,1.81c4.71,0,8.52-0.81,8.52-1.81v-3.96H627.125z"/>
							<ellipse style="fill:#FFD1B3;" cx="635.645" cy="306.061" rx="8.52" ry="1.81"/>
						</g>
						<g>
							<ellipse style="fill:#253B4D;" cx="656.345" cy="314.101" rx="8.52" ry="1.81"/>
							<path style="fill:#08121A;" d="M650.745,310.891v2.6c0,0.66,2.51,1.19,5.6,1.19c3.09,0,5.6-0.53,5.6-1.19v-2.6H650.745z"/>
							<path style="fill:#253B4D;" d="M647.815,306.061v3.96c0,1,3.82,1.81,8.52,1.81c4.7,0,8.52-0.81,8.52-1.81v-3.96H647.815z"/>
							<ellipse style="fill:#FFD1B3;" cx="656.345" cy="306.061" rx="8.52" ry="1.81"/>
						</g>
					</g>
				</g>
				<g>
					<g>
						<ellipse style="fill:#253B4D;" cx="574.365" cy="326.901" rx="8.52" ry="1.81"/>
						<path style="fill:#08121A;" d="M568.765,323.681v2.6c0,0.66,2.51,1.19,5.6,1.19c3.09,0,5.6-0.53,5.6-1.19v-2.6H568.765z"/>
						<path style="fill:#253B4D;" d="M565.845,318.851v3.96c0,1,3.82,1.81,8.52,1.81c4.71,0,8.52-0.81,8.52-1.81v-3.96H565.845z"/>
						<ellipse style="fill:#FFD1B3;" cx="574.365" cy="318.851" rx="8.52" ry="1.81"/>
					</g>
					<g>
						<ellipse style="fill:#253B4D;" cx="595.035" cy="326.901" rx="8.52" ry="1.81"/>
						<path style="fill:#08121A;" d="M589.435,323.681v2.6c0,0.66,2.51,1.19,5.6,1.19c3.09,0,5.6-0.53,5.6-1.19v-2.6H589.435z"/>
						<path style="fill:#253B4D;" d="M586.505,318.851v3.96c0,1,3.82,1.81,8.52,1.81c4.71,0,8.52-0.81,8.52-1.81v-3.96H586.505z"/>
						<ellipse style="fill:#FFD1B3;" cx="595.035" cy="318.851" rx="8.52" ry="1.81"/>
					</g>
					<g>
						<ellipse style="fill:#253B4D;" cx="615.695" cy="326.901" rx="8.52" ry="1.81"/>
						<path style="fill:#08121A;" d="M610.095,323.681v2.6c0,0.66,2.51,1.19,5.6,1.19c3.09,0,5.6-0.53,5.6-1.19v-2.6H610.095z"/>
						<path style="fill:#253B4D;" d="M607.175,318.851v3.96c0,1,3.82,1.81,8.52,1.81c4.71,0,8.52-0.81,8.52-1.81v-3.96H607.175z"/>
						<ellipse style="fill:#FFD1B3;" cx="615.695" cy="318.851" rx="8.52" ry="1.81"/>
					</g>
					<g>
						<ellipse style="fill:#253B4D;" cx="636.365" cy="326.901" rx="8.52" ry="1.81"/>
						<path style="fill:#08121A;" d="M630.765,323.681v2.6c0,0.66,2.51,1.19,5.6,1.19c3.09,0,5.6-0.53,5.6-1.19v-2.6H630.765z"/>
						<path style="fill:#253B4D;" d="M627.845,318.851v3.96c0,1,3.82,1.81,8.52,1.81s8.52-0.81,8.52-1.81v-3.96H627.845z"/>
						<ellipse style="fill:#FFD1B3;" cx="636.365" cy="318.851" rx="8.52" ry="1.81"/>
					</g>
					<g>
						<ellipse style="fill:#253B4D;" cx="657.035" cy="326.901" rx="8.52" ry="1.81"/>
						<path style="fill:#08121A;" d="M651.435,323.681v2.6c0,0.66,2.51,1.19,5.6,1.19c3.09,0,5.6-0.53,5.6-1.19v-2.6H651.435z"/>
						<path style="fill:#253B4D;" d="M648.505,318.851v3.96c0,1,3.82,1.81,8.52,1.81c4.7,0,8.52-0.81,8.52-1.81v-3.96H648.505z"/>
						<ellipse style="fill:#FFD1B3;" cx="657.035" cy="318.851" rx="8.52" ry="1.81"/>
					</g>
					<g>
						<ellipse style="fill:#253B4D;" cx="677.725" cy="326.901" rx="8.52" ry="1.81"/>
						<path style="fill:#08121A;" d="M672.125,323.681v2.6c0,0.66,2.51,1.19,5.6,1.19c3.09,0,5.6-0.53,5.6-1.19v-2.6H672.125z"/>
						<path style="fill:#253B4D;" d="M669.195,318.851v3.96c0,1,3.82,1.81,8.52,1.81c4.71,0,8.52-0.81,8.52-1.81v-3.96H669.195z"/>
						<ellipse style="fill:#FFD1B3;" cx="677.725" cy="318.851" rx="8.52" ry="1.81"/>
					</g>
				</g>
				<g>
					<g>
						<ellipse style="fill:#253B4D;" cx="595.745" cy="339.691" rx="8.52" ry="1.81"/>
						<path style="fill:#08121A;" d="M590.145,336.471v2.6c0,0.66,2.51,1.19,5.6,1.19c3.09,0,5.6-0.53,5.6-1.19v-2.6H590.145z"/>
						<path style="fill:#253B4D;" d="M587.225,331.651v3.96c0,1,3.82,1.81,8.52,1.81s8.52-0.81,8.52-1.81v-3.96H587.225z"/>
						<ellipse style="fill:#FFD1B3;" cx="595.745" cy="331.651" rx="8.52" ry="1.81"/>
					</g>
					<g>
						<ellipse style="fill:#253B4D;" cx="616.415" cy="339.691" rx="8.52" ry="1.81"/>
						<path style="fill:#08121A;" d="M610.815,336.471v2.6c0,0.66,2.51,1.19,5.6,1.19c3.09,0,5.6-0.53,5.6-1.19v-2.6H610.815z"/>
						<path style="fill:#253B4D;" d="M607.885,331.651v3.96c0,1,3.82,1.81,8.52,1.81c4.7,0,8.52-0.81,8.52-1.81v-3.96H607.885z"/>
						<ellipse style="fill:#FFD1B3;" cx="616.415" cy="331.651" rx="8.52" ry="1.81"/>
					</g>
					<g>
						<ellipse style="fill:#253B4D;" cx="637.075" cy="339.691" rx="8.52" ry="1.81"/>
						<path style="fill:#08121A;" d="M631.475,336.471v2.6c0,0.66,2.51,1.19,5.6,1.19c3.09,0,5.6-0.53,5.6-1.19v-2.6H631.475z"/>
						<path style="fill:#253B4D;" d="M628.555,331.651v3.96c0,1,3.82,1.81,8.52,1.81c4.71,0,8.52-0.81,8.52-1.81v-3.96H628.555z"/>
						<ellipse style="fill:#FFD1B3;" cx="637.075" cy="331.651" rx="8.52" ry="1.81"/>
					</g>
					<g>
						<ellipse style="fill:#253B4D;" cx="657.745" cy="339.691" rx="8.52" ry="1.81"/>
						<path style="fill:#08121A;" d="M652.145,336.471v2.6c0,0.66,2.51,1.19,5.6,1.19c3.09,0,5.6-0.53,5.6-1.19v-2.6H652.145z"/>
						<path style="fill:#253B4D;" d="M649.225,331.651v3.96c0,1,3.82,1.81,8.52,1.81c4.71,0,8.52-0.81,8.52-1.81v-3.96H649.225z"/>
						<ellipse style="fill:#FFD1B3;" cx="657.745" cy="331.651" rx="8.52" ry="1.81"/>
					</g>
					<g>
						<ellipse style="fill:#253B4D;" cx="678.415" cy="339.691" rx="8.52" ry="1.81"/>
						<path style="fill:#08121A;" d="M672.815,336.471v2.6c0,0.66,2.51,1.19,5.6,1.19c3.09,0,5.6-0.53,5.6-1.19v-2.6H672.815z"/>
						<path style="fill:#253B4D;" d="M669.885,331.651v3.96c0,1,3.82,1.81,8.52,1.81c4.71,0,8.52-0.81,8.52-1.81v-3.96H669.885z"/>
						<ellipse style="fill:#FFD1B3;" cx="678.415" cy="331.651" rx="8.52" ry="1.81"/>
					</g>
					<g>
						<ellipse style="fill:#253B4D;" cx="699.105" cy="339.691" rx="8.52" ry="1.81"/>
						<path style="fill:#08121A;" d="M693.505,336.471v2.6c0,0.66,2.51,1.19,5.6,1.19c3.09,0,5.6-0.53,5.6-1.19v-2.6H693.505z"/>
						<path style="fill:#253B4D;" d="M690.575,331.651v3.96c0,1,3.82,1.81,8.52,1.81c4.7,0,8.52-0.81,8.52-1.81v-3.96H690.575z"/>
						<ellipse style="fill:#FFD1B3;" cx="699.105" cy="331.651" rx="8.52" ry="1.81"/>
					</g>
				</g>
				<g>
					<g>
						<ellipse style="fill:#253B4D;" cx="617.125" cy="352.481" rx="8.52" ry="1.81"/>
						<path style="fill:#08121A;" d="M611.525,349.261v2.6c0,0.66,2.51,1.19,5.6,1.19s5.6-0.53,5.6-1.19v-2.6H611.525z"/>
						<path style="fill:#253B4D;" d="M608.605,344.441v3.96c0,1,3.82,1.81,8.52,1.81c4.71,0,8.52-0.81,8.52-1.81v-3.96H608.605z"/>
						<ellipse style="fill:#FFD1B3;" cx="617.125" cy="344.441" rx="8.52" ry="1.81"/>
					</g>
					<g>
						<ellipse style="fill:#253B4D;" cx="637.795" cy="352.481" rx="8.52" ry="1.81"/>
						<path style="fill:#08121A;" d="M632.195,349.261v2.6c0,0.66,2.51,1.19,5.6,1.19c3.09,0,5.6-0.53,5.6-1.19v-2.6H632.195z"/>
						<path style="fill:#253B4D;" d="M629.275,344.441v3.96c0,1,3.82,1.81,8.52,1.81c4.71,0,8.52-0.81,8.52-1.81v-3.96H629.275z"/>
						<ellipse style="fill:#FFD1B3;" cx="637.795" cy="344.441" rx="8.52" ry="1.81"/>
					</g>
					<g>
						<ellipse style="fill:#253B4D;" cx="658.455" cy="352.481" rx="8.52" ry="1.81"/>
						<path style="fill:#08121A;" d="M652.865,349.261v2.6c0,0.66,2.51,1.19,5.6,1.19c3.09,0,5.6-0.53,5.6-1.19v-2.6H652.865z"/>
						<path style="fill:#253B4D;" d="M649.935,344.441v3.96c0,1,3.82,1.81,8.52,1.81s8.52-0.81,8.52-1.81v-3.96H649.935z"/>
						<ellipse style="fill:#FFD1B3;" cx="658.455" cy="344.441" rx="8.52" ry="1.81"/>
					</g>
					<g>
						<ellipse style="fill:#253B4D;" cx="679.125" cy="352.481" rx="8.52" ry="1.81"/>
						<path style="fill:#08121A;" d="M673.525,349.261v2.6c0,0.66,2.51,1.19,5.6,1.19c3.09,0,5.6-0.53,5.6-1.19v-2.6H673.525z"/>
						<path style="fill:#253B4D;" d="M670.605,344.441v3.96c0,1,3.82,1.81,8.52,1.81s8.52-0.81,8.52-1.81v-3.96H670.605z"/>
						<ellipse style="fill:#FFD1B3;" cx="679.125" cy="344.441" rx="8.52" ry="1.81"/>
					</g>
					<g>
						<ellipse style="fill:#253B4D;" cx="699.795" cy="352.481" rx="8.52" ry="1.81"/>
						<path style="fill:#08121A;" d="M694.195,349.261v2.6c0,0.66,2.51,1.19,5.6,1.19c3.09,0,5.6-0.53,5.6-1.19v-2.6H694.195z"/>
						<path style="fill:#253B4D;" d="M691.265,344.441v3.96c0,1,3.82,1.81,8.52,1.81c4.71,0,8.52-0.81,8.52-1.81v-3.96H691.265z"/>
						<ellipse style="fill:#FFD1B3;" cx="699.795" cy="344.441" rx="8.52" ry="1.81"/>
					</g>
					<g>
						<ellipse style="fill:#253B4D;" cx="720.485" cy="352.481" rx="8.52" ry="1.81"/>
						<path style="fill:#08121A;" d="M714.885,349.261v2.6c0,0.66,2.51,1.19,5.6,1.19c3.09,0,5.6-0.53,5.6-1.19v-2.6H714.885z"/>
						<path style="fill:#253B4D;" d="M711.955,344.441v3.96c0,1,3.82,1.81,8.52,1.81c4.71,0,8.52-0.81,8.52-1.81v-3.96H711.955z"/>
						<ellipse style="fill:#FFD1B3;" cx="720.485" cy="344.441" rx="8.52" ry="1.81"/>
					</g>
				</g>
				<g>
					<g>
						<g>
							<ellipse style="fill:#253B4D;" cx="638.505" cy="365.271" rx="8.52" ry="1.81"/>
							<path style="fill:#08121A;" d="M632.905,362.051v2.6c0,0.66,2.51,1.19,5.6,1.19c3.09,0,5.6-0.53,5.6-1.19v-2.6H632.905z"/>
							<path style="fill:#253B4D;" d="M629.985,357.231v3.96c0,1,3.82,1.81,8.52,1.81s8.52-0.81,8.52-1.81v-3.96H629.985z"/>
							<ellipse style="fill:#FFD1B3;" cx="638.505" cy="357.231" rx="8.52" ry="1.81"/>
						</g>
						<g>
							<ellipse style="fill:#253B4D;" cx="659.175" cy="365.271" rx="8.52" ry="1.81"/>
							<path style="fill:#08121A;" d="M653.575,362.051v2.6c0,0.66,2.51,1.19,5.6,1.19c3.09,0,5.6-0.53,5.6-1.19v-2.6H653.575z"/>
							<path style="fill:#253B4D;" d="M650.655,357.231v3.96c0,1,3.82,1.81,8.52,1.81c4.71,0,8.52-0.81,8.52-1.81v-3.96H650.655z"/>
							<ellipse style="fill:#FFD1B3;" cx="659.175" cy="357.231" rx="8.52" ry="1.81"/>
						</g>
						<g>
							<ellipse style="fill:#253B4D;" cx="679.845" cy="365.271" rx="8.52" ry="1.81"/>
							<path style="fill:#08121A;" d="M674.245,362.051v2.6c0,0.66,2.51,1.19,5.6,1.19c3.09,0,5.6-0.53,5.6-1.19v-2.6H674.245z"/>
							<path style="fill:#253B4D;" d="M671.315,357.231v3.96c0,1,3.82,1.81,8.52,1.81c4.71,0,8.52-0.81,8.52-1.81v-3.96H671.315z"/>
							<ellipse style="fill:#FFD1B3;" cx="679.845" cy="357.231" rx="8.52" ry="1.81"/>
						</g>
						<g>
							<ellipse style="fill:#253B4D;" cx="700.505" cy="365.271" rx="8.52" ry="1.81"/>
							<path style="fill:#08121A;" d="M694.905,362.051v2.6c0,0.66,2.51,1.19,5.6,1.19c3.09,0,5.6-0.53,5.6-1.19v-2.6H694.905z"/>
							<path style="fill:#253B4D;" d="M691.985,357.231v3.96c0,1,3.82,1.81,8.52,1.81c4.71,0,8.52-0.81,8.52-1.81v-3.96H691.985z"/>
							<ellipse style="fill:#FFD1B3;" cx="700.505" cy="357.231" rx="8.52" ry="1.81"/>
						</g>
						<g>
							<ellipse style="fill:#253B4D;" cx="721.175" cy="365.271" rx="8.52" ry="1.81"/>
							<path style="fill:#08121A;" d="M715.575,362.051v2.6c0,0.66,2.51,1.19,5.6,1.19c3.09,0,5.6-0.53,5.6-1.19v-2.6H715.575z"/>
							<path style="fill:#253B4D;" d="M712.645,357.231v3.96c0,1,3.82,1.81,8.52,1.81c4.71,0,8.52-0.81,8.52-1.81v-3.96H712.645z"/>
							<ellipse style="fill:#FFD1B3;" cx="721.175" cy="357.231" rx="8.52" ry="1.81"/>
						</g>
						<g>
							<ellipse style="fill:#253B4D;" cx="741.865" cy="365.271" rx="8.52" ry="1.81"/>
							<path style="fill:#08121A;" d="M736.265,362.051v2.6c0,0.66,2.51,1.19,5.6,1.19c3.09,0,5.6-0.53,5.6-1.19v-2.6H736.265z"/>
							<path style="fill:#253B4D;" d="M733.335,357.231v3.96c0,1,3.82,1.81,8.52,1.81c4.7,0,8.52-0.81,8.52-1.81v-3.96H733.335z"/>
							<ellipse style="fill:#FFD1B3;" cx="741.865" cy="357.231" rx="8.52" ry="1.81"/>
						</g>
					</g>
				</g>
			</g>
			<polygon style="fill:#778D9E;" points="518.765,295.091 518.285,261.511 401.525,261.511 401.525,427.111 664.525,427.111 
				664.525,381.481 			"/>
			<polygon style="fill:#253B4D;" points="495.555,295.091 495.075,261.511 349.785,261.511 349.785,295.091 364.315,295.091 
				364.315,361.041 349.785,361.041 349.785,394.611 364.315,394.611 364.315,427.111 641.315,427.111 641.315,381.481 			"/>
			<rect x="632.815" y="381.481" style="fill:#4B6375;" width="196.45" height="13.13"/>
			<rect x="364.315" y="394.611" style="fill:#162938;" width="277" height="32.53"/>
			<rect x="641.315" y="394.611" style="fill:#253B4D;" width="177.41" height="32.53"/>
			<rect x="641.315" y="394.611" style="fill:#162938;" width="177.41" height="10.05"/>
			<polygon style="fill:#4B6375;" points="495.315,295.091 495.315,261.511 672.725,261.511 672.965,295.091 			"/>
			<rect x="518.575" y="271.961" style="fill:#253B4D;" width="120.28" height="23.12"/>
			<rect x="638.885" y="271.961" style="fill:#162938;" width="13.76" height="23.12"/>
			<polygon style="fill:#162938;" points="467.735,295.091 467.735,271.961 378.555,271.961 378.555,295.091 364.315,295.091 
				364.315,361.041 378.555,361.041 378.555,377.821 585.615,377.821 585.615,361.041 585.675,361.041 			"/>
			<rect x="518.585" y="271.961" style="fill:#162938;" width="120.28" height="9.55"/>
			<rect x="378.555" y="271.961" style="fill:#08121A;" width="89.18" height="9.55"/>
			<rect x="364.315" y="295.091" style="fill:#08121A;" width="25.26" height="9.55"/>
			<rect x="364.635" y="394.611" style="fill:#08121A;" width="276.68" height="10.3"/>
			<rect x="682.145" y="404.921" style="fill:#08121A;" width="97.8" height="10.3"/>
			<rect x="380.465" y="427.141" style="fill:#08121A;" width="28.77" height="10.05"/>
			<rect x="612.795" y="427.141" style="fill:#08121A;" width="28.52" height="10.05"/>
			<rect x="641.315" y="427.141" style="fill:#162938;" width="28.52" height="10.05"/>
			<rect x="408.885" y="427.141" style="fill:#162938;" width="28.52" height="10.05"/>
			<rect x="779.945" y="427.141" style="fill:#162938;" width="28.8" height="10.05"/>
			<rect x="751.425" y="427.141" style="fill:#08121A;" width="28.52" height="10.05"/>
			<rect x="378.555" y="361.241" style="fill:#4B6375;" width="11.03" height="16.59"/>
			<rect x="378.555" y="271.961" style="fill:#4B6375;" width="11.03" height="23.12"/>
			<path style="fill:#4B6375;" d="M418.305,252.411L418.305,252.411c0-1.79,1.46-3.25,3.25-3.25h164c1.79,0,3.25,1.46,3.25,3.25l0,0
				c0,1.79-1.46,3.25-3.25,3.25h-164C419.755,255.661,418.305,254.201,418.305,252.411z"/>
			<path style="fill:#253B4D;" d="M418.305,254.911v-1.75c0-0.41,0.34-0.75,0.75-0.75h169c0.41,0,0.75,0.34,0.75,0.75v1.75
				c0,0.41-0.34,0.75-0.75,0.75h-169C418.635,255.661,418.305,255.321,418.305,254.911z"/>
			<path style="fill:#778D9E;" d="M533.025,254.041v-6.48c0-1.79,1.46-3.25,3.25-3.25h6c1.79,0,3.25,1.46,3.25,3.25v6.48
				c0,1.79-1.46,3.25-3.25,3.25h-6C534.475,257.291,533.025,255.841,533.025,254.041z"/>
			<path style="fill:#4B6375;" d="M545.525,254.171v-4.5c0-1.73-1.4-3.12-3.12-3.12h-2.25c-1.73,0-3.12,1.4-3.12,3.12v0.03
				c0,1.71-1.39,3.1-3.1,3.1h-0.9v2.24c0,1.24,1.01,2.25,2.25,2.25h4.88h2.25h0.78c0.97,0,1.9-0.58,2.22-1.5
				c0.15-0.42,0.16-0.82,0.08-1.19C545.495,254.471,545.525,254.321,545.525,254.171z"/>
			<path style="fill:#253B4D;" d="M539.025,253.701v-3.56c0-1.09,0.88-1.97,1.97-1.97h1.31c1.09,0,1.97,0.88,1.97,1.97v3.56
				c0,1.09-0.88,1.97-1.97,1.97h-1.31C539.905,255.671,539.025,254.791,539.025,253.701z"/>
			<polygon style="fill:#4B6375;" points="545.525,255.041 545.525,255.051 545.525,255.051 			"/>
			<rect x="432.315" y="255.661" style="fill:#08121A;" width="8.75" height="5.85"/>
			<rect x="566.035" y="255.661" style="fill:#08121A;" width="8.75" height="5.85"/>
		</g>
	</g>
	<g>
		<path style="fill:#422C1A;" d="M172.575,284.681L172.575,284.681c0-2.47,2.26-4.32,4.68-3.84l50.6,10.14l26.55,25.76
			c0.58,0.56,0.91,1.35,0.91,2.19l0,0c0,2.56-2.85,3.91-4.62,2.19l-22.83-22.15l-52.14-10.45
			C173.895,288.151,172.575,286.551,172.575,284.681z"/>
		<path style="fill:#8C5D37;" d="M179.555,281.301v7.99l-3.83-0.77c-1.83-0.37-3.15-1.97-3.15-3.84c0-2.47,2.26-4.32,4.68-3.83
			L179.555,281.301z"/>
		<path style="fill:#422C1A;" d="M248.235,284.661v-1.79c0-0.86,0.7-1.56,1.56-1.56h24.2c0.86,0,1.56,0.7,1.56,1.56v1.79
			c0,0.86-0.7,1.56-1.56,1.56h-24.2C248.935,286.231,248.235,285.531,248.235,284.661z"/>
		<path style="fill:#8C5D37;" d="M259.315,284.661v-1.79c0-0.86,0.7-1.56,1.56-1.56h13.12c0.86,0,1.56,0.7,1.56,1.56v1.79
			c0,0.86-0.7,1.56-1.56,1.56h-13.12C260.015,286.231,259.315,285.531,259.315,284.661z"/>
		<path style="fill:#422C1A;" d="M217.375,250.761c-20.4,0-36.93,15.05-36.93,33.61s16.54,33.61,36.93,33.61
			s36.93-15.05,36.93-33.61S237.775,250.761,217.375,250.761z M217.375,313.271c-17.54,0-31.76-12.94-31.76-28.91
			c0-15.96,14.22-28.91,31.76-28.91s31.76,12.94,31.76,28.91C249.145,300.331,234.915,313.271,217.375,313.271z"/>
		<g>
			<path style="opacity:0.6;fill:#778D9E;enable-background:new    ;" d="M247.075,284.371c0,15.28-11.15,27.96-25.77,30.33h-0.01
				c-1.62,0.27-3.27,0.4-4.96,0.4c-1.53,0-3.03-0.11-4.49-0.33c-3.38-0.49-6.58-1.54-9.51-3.04c-7.36-3.77-12.99-10.42-15.42-18.46
				c-0.86-2.81-1.31-5.81-1.31-8.9c0-15.85,11.99-28.88,27.39-30.55c1.09-0.12,2.21-0.18,3.34-0.18c9.43,0,17.87,4.25,23.51,10.93
				c1.08,1.28,2.05,2.64,2.91,4.09c1.6,2.68,2.81,5.64,3.53,8.77C246.805,279.661,247.075,281.981,247.075,284.371z"/>
			<path style="opacity:0.2;fill:#FFFFFF;enable-background:new    ;" d="M239.845,264.571l-37.5,47.17
				c-7.36-3.77-12.99-10.42-15.42-18.46l26.08-39.45c1.09-0.12,2.21-0.18,3.34-0.18
				C225.775,253.641,234.215,257.891,239.845,264.571z"/>
			<path style="opacity:0.2;fill:#FFFFFF;enable-background:new    ;" d="M246.285,277.431l-24.98,37.27h-0.01
				c-1.62,0.27-3.27,0.4-4.96,0.4c-1.53,0-3.03-0.11-4.49-0.33l30.91-46.12C244.365,271.341,245.565,274.291,246.285,277.431z"/>
		</g>
		<path style="fill:#8C5D37;" d="M214.065,246.851c-20.72,0-37.52,16.8-37.52,37.52s16.8,37.52,37.52,37.52s37.52-16.8,37.52-37.52
			S234.795,246.851,214.065,246.851z M214.065,316.641c-17.82,0-32.27-14.45-32.27-32.27s14.45-32.27,32.27-32.27
			s32.27,14.45,32.27,32.27S231.885,316.641,214.065,316.641z"/>
		<path style="fill:#422C1A;" d="M313.385,250.761c-20.4,0-36.93,15.05-36.93,33.61s16.54,33.61,36.93,33.61
			c20.39,0,36.93-15.05,36.93-33.61S333.785,250.761,313.385,250.761z M313.385,313.271c-17.54,0-31.76-12.94-31.76-28.91
			c0-15.96,14.22-28.91,31.76-28.91c17.54,0,31.76,12.94,31.76,28.91C345.155,300.331,330.925,313.271,313.385,313.271z"/>
		<g>
			<path style="opacity:0.6;fill:#778D9E;enable-background:new    ;" d="M343.085,284.371c0,15.28-11.15,27.96-25.77,30.33h-0.01
				c-1.62,0.27-3.27,0.4-4.96,0.4c-1.53,0-3.03-0.11-4.49-0.33c-3.38-0.49-6.58-1.54-9.51-3.04c-7.36-3.77-12.99-10.42-15.42-18.46
				c-0.86-2.81-1.31-5.81-1.31-8.9c0-15.85,11.99-28.88,27.39-30.55c1.09-0.12,2.21-0.18,3.34-0.18c9.43,0,17.87,4.25,23.51,10.93
				c1.08,1.28,2.05,2.64,2.91,4.09c1.6,2.68,2.81,5.64,3.53,8.77C342.815,279.661,343.085,281.981,343.085,284.371z"/>
			<path style="opacity:0.2;fill:#FFFFFF;enable-background:new    ;" d="M335.855,264.571l-37.5,47.17
				c-7.36-3.77-12.99-10.42-15.42-18.46l26.08-39.45c1.09-0.12,2.21-0.18,3.34-0.18
				C321.785,253.641,330.225,257.891,335.855,264.571z"/>
			<path style="opacity:0.2;fill:#FFFFFF;enable-background:new    ;" d="M342.295,277.431l-24.98,37.27h-0.01
				c-1.62,0.27-3.27,0.4-4.96,0.4c-1.53,0-3.03-0.11-4.49-0.33l30.91-46.12C340.375,271.341,341.575,274.291,342.295,277.431z"/>
		</g>
		<path style="fill:#8C5D37;" d="M310.075,246.851c-20.72,0-37.52,16.8-37.52,37.52s16.8,37.52,37.52,37.52s37.52-16.8,37.52-37.52
			C347.605,263.651,330.805,246.851,310.075,246.851z M310.075,316.641c-17.82,0-32.27-14.45-32.27-32.27s14.45-32.27,32.27-32.27
			c17.82,0,32.27,14.45,32.27,32.27S327.895,316.641,310.075,316.641z"/>
		<path style="fill:#8C5D37;" d="M345.655,284.881L345.655,284.881c0-2.47,1.52-4.32,3.16-3.84l34.11,10.14l17.9,25.76
			c0.39,0.56,0.98,1.35,0.98,2.19l1.47,1.86c-0.25,1.21-3.76,2.05-4.95,0.33l-15.39-22.15l-35.15-10.45
			C346.535,288.351,345.655,286.741,345.655,284.881z"/>
		<path style="fill:#422C1A;" d="M352.065,286.641L352.065,286.641c0-2.47,1.41-4.32,2.92-3.84l29.45,8.38l18.7,25.76
			c0.36,0.56,0.56,1.35,0.56,2.19l0,0c0,2.56-2.02,3.87-3.13,2.14l-15.4-21.55l-31.15-9.24
			C352.885,290.111,352.065,288.511,352.065,286.641z"/>
		<ellipse style="fill:#FFD1B3;" cx="348.015" cy="285.351" rx="2.86" ry="1.39"/>
		<ellipse style="fill:#FFD1B3;" cx="177.425" cy="285.151" rx="2.86" ry="1.39"/>
	</g>
	<g>
		<g>
			<rect x="182.885" y="356.101" style="fill:#FFD1B3;" width="106.43" height="40.72"/>
			<rect x="289.315" y="356.101" style="fill:#F7AD7C;" width="22.58" height="40.72"/>
			<path style="fill:#F7AD7C;" d="M263.785,389.491v-1.07c0-0.48-0.39-0.88-0.87-0.88h-80.02v2.82h80.02
				C263.385,390.361,263.785,389.971,263.785,389.491z"/>
			<path style="fill:#F7AD7C;" d="M289.315,382.301v-2.82h-80.02c-0.48,0-0.88,0.39-0.88,0.88v1.07c0,0.48,0.39,0.88,0.88,0.88
				h80.02V382.301z"/>
			<path style="fill:#F7AD7C;" d="M263.785,364.091v-1.07c0-0.48-0.39-0.88-0.87-0.88h-80.02v2.82h80.02
				C263.385,364.971,263.785,364.571,263.785,364.091z"/>
			<path style="fill:#54060B;" d="M286.275,356.101h-108.56c-1,0-1.81-1.22-1.81-2.72l0,0c0-1.5,0.81-2.72,1.81-2.72h108.56h14.69
				h5.01v5.44h89.79c7.22,0,13.06,9.11,13.06,20.36s-5.84,20.36-13.06,20.36h-89.79v5.44h-5.01h-14.69h-108.56
				c-1,0-1.81-1.22-1.81-2.72l0,0c0-1.5,0.81-2.72,1.81-2.72h108.56c7.22,0,13.06-9.11,13.06-20.36S293.495,356.101,286.275,356.101
				z"/>
			<path style="fill:#F7B36A;" d="M286.275,402.251h144.19c9.5,0,17.2-11.55,17.2-25.8s-7.7-25.8-17.2-25.8h-144.19
				c9.5,0,17.2,11.55,17.2,25.8S295.785,402.251,286.275,402.251z"/>
			<path style="fill:#FF9524;" d="M286.275,402.251h144.19c9.5,0,17.2-11.55,17.2-25.8h-144.19
				C303.475,390.711,295.785,402.251,286.275,402.251z"/>
			<path style="fill:#54060B;" d="M391.765,402.261h26.34c9.5,0,17.2-11.55,17.2-25.8s-7.7-25.8-17.2-25.8h-26.34
				c9.5,0,17.2,11.55,17.2,25.8S401.275,402.261,391.765,402.261z"/>
			<path style="fill:#54060B;" d="M367.035,402.261h9.97c9.5,0,17.2-11.55,17.2-25.8s-7.7-25.8-17.2-25.8h-9.97
				c9.5,0,17.2,11.55,17.2,25.8S376.535,402.261,367.035,402.261z"/>
			<path style="fill:#54060B;" d="M349.855,402.261h9.97c9.5,0,17.2-11.55,17.2-25.8s-7.7-25.8-17.2-25.8h-9.97
				c9.5,0,17.2,11.55,17.2,25.8S359.355,402.261,349.855,402.261z"/>
		</g>
		<g>
			<rect x="167.835" y="318.551" style="fill:#FFD1B3;" width="106.43" height="29.42"/>
			<rect x="274.265" y="318.551" style="fill:#F7AD7C;" width="22.58" height="29.42"/>
			<path style="fill:#F7AD7C;" d="M248.735,339.141v-1.07c0-0.48-0.39-0.88-0.87-0.88h-80.02v2.82h80.02
				C248.335,340.011,248.735,339.621,248.735,339.141z"/>
			<path style="fill:#F7AD7C;" d="M274.265,331.951v-2.82h-80.02c-0.48,0-0.87,0.39-0.87,0.87v1.07c0,0.48,0.39,0.88,0.87,0.88
				H274.265z"/>
			<path style="fill:#001F10;" d="M271.225,318.551h-108.56c-1,0-1.81-0.88-1.81-1.97l0,0c0-1.09,0.81-1.97,1.81-1.97h108.56h14.69
				h5.01v3.93h89.79c7.22,0,13.06,6.58,13.06,14.71s-5.84,14.71-13.06,14.71h-89.79v3.93h-5.01h-14.69h-108.56
				c-1,0-1.81-0.88-1.81-1.97l0,0c0-1.09,0.81-1.97,1.81-1.97h108.56c7.22,0,13.06-6.58,13.06-14.71
				C284.285,325.131,278.445,318.551,271.225,318.551z"/>
			<path style="fill:#307A56;" d="M271.225,351.901h144.19c9.5,0,17.2-8.34,17.2-18.64c0-10.3-7.7-18.64-17.2-18.64h-144.19
				c9.5,0,17.2,8.34,17.2,18.64C288.425,343.561,280.725,351.901,271.225,351.901z"/>
			<path style="fill:#084025;" d="M271.225,351.901h144.19c9.5,0,17.2-8.34,17.2-18.64h-144.19
				C288.425,343.561,280.725,351.901,271.225,351.901z"/>
			<path style="fill:#001F10;" d="M294.135,346.761h12.1c4.37,0,7.9-6.04,7.9-13.5c0-7.46-3.54-13.5-7.9-13.5h-12.1
				c4.37,0,7.9,6.04,7.9,13.5C302.035,340.721,298.495,346.761,294.135,346.761z"/>
			<path style="fill:#001F10;" d="M404.825,346.761h12.1c4.37,0,7.9-6.04,7.9-13.5c0-7.46-3.54-13.5-7.9-13.5h-12.1
				c4.37,0,7.9,6.04,7.9,13.5C412.725,340.721,409.185,346.761,404.825,346.761z"/>
			<path style="fill:#001F10;" d="M320.195,333.311v-0.1c0-4.12,3.34-7.46,7.46-7.46h68.59c4.12,0,7.46,3.34,7.46,7.46v0.1
				c0,4.12-3.34,7.46-7.46,7.46h-68.59C323.535,340.761,320.195,337.431,320.195,333.311z"/>
		</g>
		<g>
			<rect x="159.235" y="405.941" style="fill:#FFD1B3;" width="106.43" height="27.57"/>
			<rect x="265.665" y="405.941" style="fill:#F7AD7C;" width="22.58" height="27.57"/>
			<path style="fill:#F7AD7C;" d="M265.665,422.551v-2.82h-80.02c-0.48,0-0.87,0.39-0.87,0.88v1.07c0,0.48,0.39,0.87,0.87,0.87
				H265.665z"/>
			<path style="fill:#F7AD7C;" d="M265.665,414.281v-2.82h-47.53c-0.52,0-0.94,0.42-0.94,0.94v0.94c0,0.52,0.42,0.94,0.94,0.94
				H265.665z"/>
			<path style="fill:#F7AD7C;" d="M240.135,428.591v-1.07c0-0.48-0.39-0.88-0.87-0.88h-80.02v2.82h80.02
				C239.735,429.471,240.135,429.071,240.135,428.591z"/>
			<path style="fill:#422C1A;" d="M262.625,405.941h-108.56c-1,0-1.81-0.82-1.81-1.84l0,0c0-1.02,0.81-1.84,1.81-1.84h108.56h14.69
				h5.01v3.68h89.79c7.22,0,13.06,6.17,13.06,13.78c0,7.62-5.84,13.78-13.06,13.78h-89.79v3.68h-5.01h-14.69h-108.56
				c-1,0-1.81-0.82-1.81-1.84l0,0c0-1.02,0.81-1.84,1.81-1.84h108.56c7.22,0,13.06-6.17,13.06-13.78
				S269.845,405.941,262.625,405.941z"/>
			<path style="fill:#8C5D37;" d="M262.625,437.191h144.19c9.5,0,17.2-7.82,17.2-17.47s-7.7-17.47-17.2-17.47h-144.19
				c9.5,0,17.2,7.82,17.2,17.47C279.825,429.381,272.125,437.191,262.625,437.191z"/>
			<path style="fill:#66462C;" d="M262.625,437.191h144.19c9.5,0,17.2-7.82,17.2-17.47h-144.19
				C279.825,429.381,272.125,437.191,262.625,437.191z"/>
			<g>
				<path style="fill:#A1734D;" d="M400.005,429.671c5.49,0,9.94-4.45,9.94-9.94c0-5.49-4.45-9.94-9.94-9.94
					c0,0-65.24,4.45-65.24,9.94C334.765,425.221,400.005,429.671,400.005,429.671z"/>
				<path style="fill:#A1734D;" d="M326.995,419.721c0-29.33-38.1,9.94-9.94,9.94C322.545,429.671,326.995,425.221,326.995,419.721z
					"/>
				<path style="fill:#A1734D;" d="M301.045,413.811c-3.88-3.88-10.18-3.88-14.06,0c-3.88,3.88-3.88,10.18,0,14.06
					C290.865,431.751,304.935,417.701,301.045,413.811z"/>
			</g>
		</g>
	</g>
	<g>
		<path style="fill:#4B6375;" d="M142.425,397.421v39.78h-62.35v-39.78c0-8.55,6.88-15.48,15.38-15.59v-19.89h3.27v25.11
			c-6.75,0.1-12.2,6.02-12.2,13.31v33.95h49.45v-33.95c0-7.34-5.54-13.31-12.36-13.31h0.17v-25.11h3.26v19.89
			C135.555,381.941,142.425,388.871,142.425,397.421z"/>
		<path style="fill:#4B6375;" d="M86.525,434.321v-33.47c0,0,7.79-10.38,24.73-1.29c15.1,8.11,24.73,1.29,24.73,1.29v33.47H86.525z"
			/>
		<g>
			<path style="fill:#FFD1B3;" d="M130.755,329.941c9.48-5.71,18.27-11.59,26.34-17.56c6.21-16.91,9.88-40.05,8.69-70.08
				c-0.89-22.54-0.45-40.84,0.69-55.59c-4.07,3.21-8.17,6.58-12.28,10.12c4.18-5.61,8.46-10.89,12.77-15.79
				c0.39-4.14,0.84-7.96,1.33-11.5c-4.69,4.79-9.49,9.83-14.4,15.14c5.05-6.71,10.06-13.07,14.96-19
				c3.86-25.05,9.51-33.72,9.51-33.72s-52.14,14.93-77.4,84.94c4.54,11.21,8.38,24.13,11.31,38.1c-4.6-10.18-9.45-19.68-14.49-28.47
				c-2.73,9.01-5.03,18.83-6.75,29.55c-1.73,10.77-2.45,21.22-2.29,30.99c6.73,9.03,13.26,19.57,19.28,31.15
				c-6.23-7.42-12.49-14.31-18.75-20.64c0.01,0.13,0.02,0.26,0.03,0.39c5.49,7.88,10.81,16.74,15.79,26.31
				c-4.81-5.74-9.65-11.14-14.48-16.23c3.84,22.47,13.33,38.19,26.55,40.31c11.99,1.92,26.24-6.54,36.25-27.22
				C146.345,324.291,138.745,327.251,130.755,329.941z"/>
			<path style="fill:#F7AD7C;" d="M125.145,243.561c-5.88-15.85-10.8-31.4-15.47-46.86v-0.01c3.48-6.84,7.21-12.99,11.08-18.52
				C120.225,199.661,121.765,221.751,125.145,243.561z"/>
			<path style="fill:#F7AD7C;" d="M131.485,202.821c-3.34-9.32-5.98-18.88-7.9-28.59c3.09-4.13,6.25-7.88,9.41-11.29
				C132.585,176.301,132.025,189.561,131.485,202.821z"/>
			<path style="fill:#F7AD7C;" d="M165.175,273.451c-9.8,6.05-19.6,12.12-29.4,18.17c8.74-14.85,18.86-28.86,30.21-41.82
				C166.095,258.271,165.805,266.141,165.175,273.451z"/>
			<path style="fill:#F7AD7C;" d="M112.725,305.421c-8.43-9.94-16.39-19.83-23.8-29.52c0.15-2.9,0.36-5.85,0.66-8.84
				c0.62,0.69,1.2,1.37,1.76,2.03c4.52,5.5,7.21,10.38,9.76,15.04C104.975,291.231,108.845,298.321,112.725,305.421z"/>
			<path style="fill:#F7AD7C;" d="M162.075,294.861c-0.61,2.87-1.28,5.62-2,8.23c-0.76,0.46-1.52,0.92-2.27,1.37
				c-6.92,4.18-13.84,8.34-20.77,12.51C145.435,309.211,153.815,301.831,162.075,294.861z"/>
			<path style="fill:#DE8B54;" d="M117.155,348.341c4.56-116.59,27.12-173.26,27.12-173.26l-24.09,158.18
				C120.185,333.261,116.815,356.931,117.155,348.341z"/>
			<path style="fill:#F7AD7C;" d="M165.685,239.741c-1.35,1.77-2.7,3.39-4.03,4.99c-5.17,6.21-10.33,12.42-15.5,18.63
				c6.33-11.83,12.77-23.19,19.26-33.91C165.465,232.771,165.565,236.201,165.685,239.741z"/>
			<path style="fill:#F7AD7C;" d="M108.825,405.961c4.23-48.93,19.71-146.31,28.12-194.8c1.57-9.07,7.33-36.08,7.33-36.08
				l-34.62,255.09c-0.21,1.51-2,1.44-1.95-0.08C107.985,421.091,108.385,411.071,108.825,405.961z"/>
		</g>
		<g style="opacity:0.6;">
			<path style="fill:#4B6375;" d="M123.615,387.061h0.17v-25.12h-25.06v25.12h0.17c-6.83,0-12.36,5.96-12.36,13.31v33.95h49.45
				v-33.95C135.985,393.021,130.445,387.061,123.615,387.061z"/>
		</g>
		<path style="fill:#162938;" d="M135.985,434.321v-33.47c0,0-3.42-6.64-24.73,3.86c-14.9,7.34-24.73-3.86-24.73-3.86v33.47H135.985
			z"/>
		<path style="fill:#4B6375;" d="M131.205,356.291v2.14c0,1.93-1.57,3.5-3.5,3.5h-31.7c-1.93,0-3.5-1.57-3.5-3.5v-2.14H131.205z"/>
		<g style="opacity:0.2;">
			<path style="fill:#FFFFFF;" d="M108.095,381.831h0.05v-19.89h-7.62v19.89h0.05c-2.08,0-3.76,6.98-3.76,15.59v39.77h15.05v-39.77
				C111.855,388.811,110.165,381.831,108.095,381.831z"/>
		</g>
		<rect x="96.805" y="356.301" style="opacity:0.2;fill:#FFFFFF;enable-background:new    ;" width="7.26" height="5.64"/>
	</g>
</g>
</svg>
